<svg xmlns="http://www.w3.org/2000/svg" viewBox="0 0 100 100"><defs><style>.cls-1{fill:#3b5154;}.cls-2{fill:#233233;}.cls-2,.cls-3{fill-rule:evenodd;}.cls-3{fill:#fff;}</style></defs><title>bg_infinito</title><g id="Layer_2" data-name="Layer 2"><g id="bg"><rect class="cls-1" width="100" height="100"/><path class="cls-2" d="M42,56.92C38.86,56.6,36,52.5,35.44,47.1,19.31,49.46,29.49,70,42.9,65.49c-6.43,2.13-14-.15-16.17-5.54-2.77-7,.75-12.79,8.54-13.78-.58-13.34,22-17.59,26-4.61C68.76,39.19,74.94,45,74.14,52.2c-.63,5.54-7,9.68-13.34,10.43,6.28-2.07,13.1-6,12.21-13.14-.62-5-4.63-8.35-11-7.1.47,5-.05,9.29-3.07,11.85,5.8-8.59-1-23.48-14.37-19.1C36,38,33.39,51.35,42,56.92Z"/><path class="cls-3" d="M42,56.92C38.86,56.6,36,52.5,35.44,47.1,19.31,49.46,29.49,70,42.9,65.49c-6.43,2.13-14-.15-16.17-5.54-2.77-7,.75-12.79,8.54-13.78-.58-13.34,22-17.59,26-4.61C68.76,39.19,74.94,45,74.14,52.2c-.63,5.54-7,9.68-13.34,10.43,6.28-2.07,13.1-6,12.21-13.14-.62-5-4.63-8.35-11-7.1.47,5-.05,9.29-3.07,11.85,5.8-8.59-1-23.48-14.37-19.1C36,38,33.39,51.35,42,56.92Z"/></g></g></svg>